<svg width="40" height="40" xmlns="http://www.w3.org/2000/svg" xmlns:xlink="http://www.w3.org/1999/xlink" xml:space="preserve" overflow="hidden"><g transform="translate(-850 -336)"><path d="M850 336 890 336 890 376 850 376Z" fill="#ED7100" fill-rule="evenodd"/><path d="M868.021 355.495C868.021 355.34 867.95 355.198 867.833 355.104L864.879 352.151 864.172 352.858 866.31 354.995 857 354.995 857 355.995 866.314 355.995 864.172 358.137 864.879 358.844 867.848 355.875C867.956 355.781 868.021 355.643 868.021 355.495L868.021 355.495ZM883.986 354.995 874.675 354.995 876.813 352.858 876.106 352.151 873.137 355.12C873.03 355.213 872.964 355.351 872.964 355.499 872.964 355.654 873.036 355.797 873.153 355.89L876.106 358.844 876.813 358.137 874.671 355.995 883.986 355.995 883.986 354.995ZM870.996 367.324 870.996 358.01 869.996 358.01 869.996 367.32 867.858 365.183 867.151 365.89 870.12 368.857C870.213 368.966 870.352 369.032 870.5 369.032 870.656 369.032 870.8 368.959 870.893 368.841L873.844 365.89 873.137 365.183 870.996 367.324ZM867.858 345.837 867.151 345.13 870.103 342.179C870.285 341.947 870.683 341.939 870.877 342.162L873.844 345.13 873.137 345.837 870.996 343.696 870.996 353.01 869.996 353.01 869.996 343.7 867.858 345.837Z" fill="#FFFFFF" fill-rule="evenodd"/></g></svg>