<svg width="80" height="80" xmlns="http://www.w3.org/2000/svg" xmlns:xlink="http://www.w3.org/1999/xlink" xml:space="preserve" overflow="hidden"><g transform="translate(-314 -124)"><path d="M314 124 394 124 394 204 314 204Z" fill="#ED7100" fill-rule="evenodd"/><path d="M341 177 366 177 366 152 341 152 341 177ZM368 152 372 152 372 154 368 154 368 158 372 158 372 160 368 160 368 163 372 163 372 165 368 165 368 169 372 169 372 171 368 171 368 175 372 175 372 177 368 177 368 177.136C368 178.164 367.164 179 366.136 179L366 179 366 183 364 183 364 179 360 179 360 183 358 183 358 179 355 179 355 183 353 183 353 179 349 179 349 183 347 183 347 179 343 179 343 183 341 183 341 179 340.864 179C339.836 179 339 178.164 339 177.136L339 177 336 177 336 175 339 175 339 171 336 171 336 169 339 169 339 165 336 165 336 163 339 163 339 160 336 160 336 158 339 158 339 154 336 154 336 152 339 152 339 151.864C339 150.836 339.836 150 340.864 150L341 150 341 146 343 146 343 150 347 150 347 146 349 146 349 150 353 150 353 146 355 146 355 150 358 150 358 146 360 146 360 150 364 150 364 146 366 146 366 150 366.136 150C367.164 150 368 150.836 368 151.864L368 152ZM355 189.876C355 189.944 354.944 190 354.876 190L328.124 190C328.056 190 328 189.944 328 189.876L328 163.124C328 163.056 328.056 163 328.124 163L334 163 334 161 328.124 161C326.953 161 326 161.953 326 163.124L326 189.876C326 191.047 326.953 192 328.124 192L354.876 192C356.047 192 357 191.047 357 189.876L357 185 355 185 355 189.876ZM382 138.124 382 164.876C382 166.047 381.047 167 379.876 167L374 167 374 165 379.876 165C379.944 165 380 164.944 380 164.876L380 138.124C380 138.056 379.944 138 379.876 138L353.124 138C353.056 138 353 138.056 353 138.124L353 144 351 144 351 138.124C351 136.953 351.953 136 353.124 136L379.876 136C381.047 136 382 136.953 382 138.124L382 138.124Z" fill="#FFFFFF" fill-rule="evenodd"/></g></svg>