<svg width="80" height="80" xmlns="http://www.w3.org/2000/svg" xmlns:xlink="http://www.w3.org/1999/xlink" xml:space="preserve" overflow="hidden"><g transform="translate(-314 -125)"><path d="M314 125 394 125 394 205 314 205Z" fill="#ED7100" fill-rule="evenodd"/><path d="M360.842 157.199 354.013 165.12 361.441 173.784 358.669 173.784 352 166 352 174 350 174 350 157 352 157 352 164 358.181 157.199 360.842 157.199ZM378 173.234 370 168.433 370 157C370 156.644 369.812 156.315 369.504 156.136L358 149.426 358 139.752 378 151.571 378 173.234ZM379.509 150.139 357.509 137.139C357.199 136.956 356.818 136.954 356.504 137.131 356.193 137.309 356 137.641 356 138L356 150C356 150.355 356.189 150.684 356.496 150.864L368 157.574 368 169C368 169.351 368.185 169.677 368.486 169.857L378.486 175.857C378.644 175.952 378.822 176 379 176 379.17 176 379.34 175.957 379.493 175.87 379.807 175.693 380 175.36 380 175L380 151C380 150.646 379.814 150.319 379.509 150.139L379.509 150.139ZM354.445 191.863 331 179.399 331 151.571 351 139.752 351 149.451 340.463 156.156C340.175 156.34 340 156.658 340 157L340 174C340 174.373 340.208 174.715 340.538 174.887L353.991 181.887C354.28 182.037 354.624 182.038 354.912 181.888L367.964 175.144 375.996 179.964 354.445 191.863ZM378.515 179.142 368.515 173.142C368.217 172.964 367.849 172.952 367.541 173.112L354.455 179.873 342 173.393 342 157.549 352.537 150.844C352.825 150.66 353 150.342 353 150L353 138C353 137.641 352.808 137.309 352.496 137.131 352.184 136.954 351.802 136.956 351.491 137.139L329.491 150.139C329.187 150.319 329 150.646 329 151L329 180C329 180.369 329.204 180.709 329.53 180.883L353.984 193.883C354.131 193.961 354.292 194 354.453 194 354.62 194 354.786 193.958 354.937 193.875L378.484 180.875C378.797 180.702 378.993 180.375 379 180.018 379.006 179.66 378.821 179.326 378.515 179.142L378.515 179.142Z" fill="#FFFFFF" fill-rule="evenodd"/></g></svg>