<svg width="80" height="80" xmlns="http://www.w3.org/2000/svg" xmlns:xlink="http://www.w3.org/1999/xlink" xml:space="preserve" overflow="hidden"><g transform="translate(-791 -125)"><path d="M791 125 871 125 871 205 791 205Z" fill="#8C4FFF" fill-rule="evenodd"/><path d="M821 178C813.832 178 808 172.168 808 165 808 157.832 813.832 152 821 152 828.168 152 834 157.832 834 165 834 172.168 828.168 178 821 178M851 184C851 186.206 849.206 188 847 188 844.794 188 843 186.206 843 184 843 181.794 844.794 180 847 180 849.206 180 851 181.794 851 184M847 142C849.206 142 851 143.794 851 146 851 148.206 849.206 150 847 150 844.794 150 843 148.206 843 146 843 143.794 844.794 142 847 142M850 161C852.206 161 854 162.794 854 165 854 167.206 852.206 169 850 169 847.794 169 846 167.206 846 165 846 162.794 847.794 161 850 161M835.949 166 844.09 166C844.568 168.833 847.033 171 850 171 853.309 171 856 168.309 856 165 856 161.691 853.309 159 850 159 847.033 159 844.568 161.167 844.09 164L835.949 164C835.823 162.099 835.344 160.297 834.572 158.654L843.446 150.823C844.442 151.559 845.669 152 847 152 850.309 152 853 149.309 853 146 853 142.691 850.309 140 847 140 843.691 140 841 142.691 841 146 841 147.256 841.389 148.421 842.051 149.386L833.581 156.859C830.904 152.738 826.271 150 821 150 812.729 150 806 156.729 806 165 806 173.271 812.729 180 821 180 826.271 180 830.904 177.262 833.581 173.141L842.051 180.614C841.389 181.579 841 182.744 841 184 841 187.309 843.691 190 847 190 850.309 190 853 187.309 853 184 853 180.691 850.309 178 847 178 845.669 178 844.442 178.441 843.446 179.177L834.572 171.346C835.344 169.703 835.823 167.901 835.949 166" fill="#FFFFFF" fill-rule="evenodd"/></g></svg>