<svg width="48" height="48" xmlns="http://www.w3.org/2000/svg" xmlns:xlink="http://www.w3.org/1999/xlink" xml:space="preserve" overflow="hidden"><g transform="translate(-457 -412)"><path d="M470.625 447.921 470.625 445.083 472.4 446.502 470.625 447.921ZM470.25 442.221C469.949 441.98 469.536 441.933 469.191 442.101 468.846 442.268 468.625 442.617 468.625 443.002L468.625 450.002C468.625 450.387 468.846 450.736 469.191 450.903 469.331 450.97 469.479 451.002 469.625 451.002 469.849 451.002 470.069 450.928 470.25 450.783L474.625 447.283C474.862 447.093 475 446.806 475 446.502 475 446.198 474.862 445.911 474.625 445.721L470.25 442.221ZM494.251 438.837 494.251 434.915 496.212 436.876 494.251 438.837ZM498.333 436.169 493.958 431.794C493.672 431.508 493.245 431.422 492.868 431.577 492.495 431.732 492.251 432.097 492.251 432.501L492.251 435.876 484.625 435.876 484.625 426.376C484.625 425.823 484.178 425.376 483.625 425.376L475.931 425.376 475.931 427.376 482.625 427.376 482.625 435.876 475.75 435.876 475.75 437.876 482.625 437.876 482.625 446.377 475.931 446.377 475.931 448.377 483.625 448.377C484.178 448.377 484.625 447.93 484.625 447.377L484.625 437.876 492.251 437.876 492.251 441.252C492.251 441.656 492.495 442.022 492.868 442.176 492.992 442.228 493.122 442.252 493.251 442.252 493.512 442.252 493.768 442.15 493.958 441.959L498.333 437.583C498.724 437.192 498.724 436.56 498.333 436.169L498.333 436.169ZM470.625 438.296 470.625 435.457 472.4 436.876 470.625 438.296ZM470.25 432.595C469.949 432.354 469.536 432.308 469.191 432.475 468.846 432.642 468.625 432.991 468.625 433.376L468.625 440.377C468.625 440.762 468.846 441.111 469.191 441.278 469.331 441.345 469.479 441.377 469.625 441.377 469.849 441.377 470.069 441.303 470.25 441.158L474.625 437.657C474.862 437.467 475 437.18 475 436.876 475 436.572 474.862 436.285 474.625 436.095L470.25 432.595ZM470.625 427.795 470.625 424.957 472.4 426.376 470.625 427.795ZM470.25 422.095C469.949 421.854 469.536 421.807 469.191 421.975 468.846 422.142 468.625 422.491 468.625 422.876L468.625 429.876C468.625 430.261 468.846 430.61 469.191 430.777 469.331 430.844 469.479 430.876 469.625 430.876 469.849 430.876 470.069 430.802 470.25 430.657L474.625 427.157C474.862 426.967 475 426.68 475 426.376 475 426.072 474.862 425.785 474.625 425.595L470.25 422.095ZM481 456.003C469.973 456.003 461 447.03 461 436.001 461 424.973 469.973 416 481 416 492.03 416 501.003 424.973 501.003 436.001 501.003 447.03 492.03 456.003 481 456.003L481 456.003ZM481 414C468.868 414 459 423.869 459 436.001 459 448.133 468.868 458.003 481 458.003 493.133 458.003 503.003 448.133 503.003 436.001 503.003 423.869 493.133 414 481 414L481 414Z" fill="#8C4FFF" fill-rule="evenodd"/></g></svg>