<svg width="40" height="40" xmlns="http://www.w3.org/2000/svg" xmlns:xlink="http://www.w3.org/1999/xlink" xml:space="preserve" overflow="hidden"><g transform="translate(-443 -275)"><path d="M443 275 483 275 483 315 443 315Z" fill="#00A4A6" fill-rule="evenodd"/><path d="M462.536 297.049C463.642 297.049 464.542 297.948 464.542 299.054 464.542 300.16 463.642 301.06 462.536 301.06 461.43 301.06 460.53 300.16 460.53 299.054 460.53 297.948 461.43 297.049 462.536 297.049L462.536 297.049ZM462.012 302.007 462.012 305.501 463.012 305.501 463.012 302.012C464.442 301.782 465.542 300.549 465.542 299.054 465.542 297.397 464.193 296.049 462.536 296.049 460.879 296.049 459.53 297.397 459.53 299.054 459.53 300.532 460.604 301.757 462.012 302.007L462.012 302.007ZM453 308.014 472.012 308.014 472.012 293 453 293 453 308.014ZM457.046 287.484C457.046 284.46 459.506 282 462.529 282 465.553 282 468.012 284.46 468.012 287.484L468.012 292 457.046 292 457.046 287.484ZM472.512 292 469.012 292 469.012 287.484C469.012 283.908 466.103 281 462.529 281 458.954 281 456.046 283.908 456.046 287.484L456.046 292 452.5 292C452.223 292 452 292.224 452 292.5L452 308.514C452 308.79 452.223 309.014 452.5 309.014L472.512 309.014C472.788 309.014 473.012 308.79 473.012 308.514L473.012 292.5C473.012 292.224 472.788 292 472.512 292L472.512 292Z" fill="#FFFFFF" fill-rule="evenodd"/></g></svg>