<svg width="40" height="40" xmlns="http://www.w3.org/2000/svg" xmlns:xlink="http://www.w3.org/1999/xlink" xml:space="preserve" overflow="hidden"><g transform="translate(-645 -275)"><path d="M645 275 685 275 685 315 645 315Z" fill="#7AA116" fill-rule="evenodd"/><path d="M664.536 297.049C665.642 297.049 666.542 297.948 666.542 299.054 666.542 300.16 665.642 301.06 664.536 301.06 663.43 301.06 662.53 300.16 662.53 299.054 662.53 297.948 663.43 297.049 664.536 297.049L664.536 297.049ZM664.012 302.007 664.012 305.501 665.012 305.501 665.012 302.012C666.442 301.782 667.542 300.549 667.542 299.054 667.542 297.397 666.193 296.049 664.536 296.049 662.879 296.049 661.53 297.397 661.53 299.054 661.53 300.532 662.604 301.757 664.012 302.007L664.012 302.007ZM655 308.014 674.012 308.014 674.012 293 655 293 655 308.014ZM659.046 287.484C659.046 284.46 661.506 282 664.529 282 667.553 282 670.012 284.46 670.012 287.484L670.012 292 659.046 292 659.046 287.484ZM674.512 292 671.012 292 671.012 287.484C671.012 283.908 668.103 281 664.529 281 660.954 281 658.046 283.908 658.046 287.484L658.046 292 654.5 292C654.223 292 654 292.224 654 292.5L654 308.514C654 308.79 654.223 309.014 654.5 309.014L674.512 309.014C674.788 309.014 675.012 308.79 675.012 308.514L675.012 292.5C675.012 292.224 674.788 292 674.512 292L674.512 292Z" fill="#FFFFFF" fill-rule="evenodd"/></g></svg>