<svg width="80" height="80" xmlns="http://www.w3.org/2000/svg" xmlns:xlink="http://www.w3.org/1999/xlink" xml:space="preserve" overflow="hidden"><g transform="translate(-314 -124)"><path d="M314 124 394 124 394 204 314 204Z" fill="#8C4FFF" fill-rule="evenodd"/><path d="M375 165.372 369.5 163.172 369.5 183.123C371.106 182.963 372.401 182.435 373.321 181.501 375.021 179.773 375.001 177.24 375 177.215L375 165.372ZM367.5 183.136 367.5 163.172 362 165.372 362 177.195C362.007 177.402 362.234 182.552 367.5 183.136L367.5 183.136ZM377 177.195C377.003 177.308 377.053 180.542 374.765 182.885 373.269 184.418 371.16 185.195 368.5 185.195 361.927 185.195 360.065 179.977 360 177.219L360 164.695C360 164.286 360.249 163.918 360.629 163.766L368.129 160.766C368.367 160.671 368.633 160.671 368.871 160.766L376.371 163.766C376.751 163.918 377 164.286 377 164.695L377 177.195ZM380.001 175.229 380 161.872 368.5 157.272 357 161.872 357 175.195C356.998 175.286 356.865 181.423 360.534 185.199 362.466 187.187 365.146 188.195 368.5 188.195 371.877 188.195 374.57 187.18 376.504 185.179 380.168 181.387 380.003 175.29 380.001 175.229L380.001 175.229ZM377.942 186.568C375.617 188.975 372.44 190.195 368.5 190.195 364.579 190.195 361.413 188.979 359.09 186.581 354.831 182.188 354.991 175.448 355 175.164L355 161.195C355 160.786 355.249 160.418 355.629 160.266L368.129 155.266C368.367 155.171 368.633 155.171 368.871 155.266L381.371 160.266C381.751 160.418 382 160.786 382 161.195L382 175.195C382.009 175.445 382.189 182.173 377.942 186.568L377.942 186.568ZM337.055 171.195 352 171.195 352 173.195 337.055 173.195C330.977 173.195 326.337 169.143 326.024 163.56 326.002 163.332 326 163.066 326 162.8 326 155.931 330.803 153.402 333.604 152.512 333.584 152.191 333.574 151.866 333.574 151.539 333.574 146.086 337.464 140.381 342.621 138.269 348.677 135.789 355.062 136.99 359.695 141.476 361.256 142.997 362.446 144.621 363.307 146.41 364.513 145.375 365.969 144.819 367.529 144.819 370.834 144.819 374.33 147.413 374.931 152.382 377.114 152.932 379.854 154.1 381.788 156.58L380.212 157.81C378.43 155.524 375.741 154.572 373.8 154.174 373.355 154.084 373.028 153.706 373.002 153.254 372.741 148.833 369.982 146.819 367.529 146.819 366.067 146.819 364.771 147.509 363.78 148.814 363.559 149.106 363.199 149.257 362.835 149.199 362.474 149.144 362.17 148.897 362.045 148.554 361.278 146.464 360.054 144.618 358.302 142.911 354.258 138.997 348.676 137.952 343.379 140.12 338.93 141.942 335.574 146.851 335.574 151.539 335.574 152.08 335.605 152.615 335.668 153.128 335.729 153.629 335.405 154.097 334.915 154.219 332.333 154.858 328 156.824 328 162.8 328 163.002 327.998 163.205 328.018 163.408 328.272 167.936 332.072 171.195 337.055 171.195L337.055 171.195Z" fill="#FFFFFF" fill-rule="evenodd"/></g></svg>